<svg xmlns="http://www.w3.org/2000/svg" viewBox="0 0 100 100">
  <rect width="100" height="100" rx="20" fill="#171310"/>
  <rect x="3.5" y="3.5" width="93" height="93" rx="17" fill="none" stroke="#A23B49" stroke-opacity="0.8" stroke-width="1.2"/>
  <g transform="translate(14.80 14.78) scale(0.0583)"><path d="M 997.500 60.475 C 989.116 66.049, 972.071 74.996, 969.816 75.006 C 969.092 75.010, 967.292 75.643, 965.816 76.413 C 962.040 78.382, 947.156 82.522, 936.500 84.566 C 928.130 86.172, 917.216 86.247, 780.500 85.640 C 499.102 84.390, 305.458 82.930, 299 82.008 C 282.667 79.677, 272.668 77.893, 271.033 77.017 C 270.054 76.494, 267.084 75.579, 264.433 74.985 C 256.310 73.165, 243.058 66.005, 238.083 60.750 C 232.643 55.003, 232.465 54.992, 224.812 59.965 C 221.456 62.146, 218.213 64.096, 217.605 64.298 C 216.598 64.634, 214.844 347.151, 215.827 350.673 C 216.488 353.041, 219.010 352.784, 228.649 349.368 C 234.067 347.447, 240.028 345.486, 241.896 345.010 C 246.212 343.910, 246.966 342.655, 246.985 336.538 C 247.003 330.603, 250.576 306.541, 252.484 299.500 C 253.229 296.750, 254.150 292.475, 254.531 290 C 255.155 285.939, 256.736 280.801, 262.068 265.500 C 273.870 231.636, 294.947 204.110, 323.499 185.276 C 327.898 182.374, 332.028 180, 332.676 180 C 333.324 180, 336.764 178.483, 340.320 176.630 C 361.619 165.528, 383.124 162.883, 451.500 162.954 C 483.655 162.988, 535.578 162.488, 695.849 160.604 C 752.092 159.943, 751.833 159.901, 745.040 168.450 C 743.411 170.499, 741.776 173.149, 741.406 174.338 C 741.036 175.527, 739.515 178.075, 738.027 180 C 735.505 183.262, 717.916 211.316, 706.500 230.285 C 703.750 234.854, 700.038 240.732, 698.250 243.347 C 696.462 245.961, 695 248.473, 695 248.928 C 695 249.383, 694.288 250.346, 693.418 251.068 C 692.549 251.790, 690.519 254.882, 688.907 257.940 C 687.296 260.998, 683.745 266.875, 681.015 271 C 678.286 275.125, 675.733 279.175, 675.344 280 C 674.954 280.825, 673.866 282.625, 672.926 284 C 671.986 285.375, 667.503 292.575, 662.963 300 C 658.423 307.425, 653.704 315.075, 652.475 317 C 651.246 318.925, 647.374 325.111, 643.870 330.747 C 640.367 336.383, 634.022 346.508, 629.771 353.247 C 625.519 359.986, 621.119 367.075, 619.992 369 C 618.866 370.925, 617.169 373.707, 616.222 375.181 C 615.275 376.656, 609.775 385.563, 604 394.976 C 598.225 404.388, 590.668 416.456, 587.206 421.794 C 583.744 427.132, 578.369 435.775, 575.261 441 C 572.154 446.225, 566.828 454.775, 563.426 460 C 560.025 465.225, 553.089 476.250, 548.015 484.500 C 542.940 492.750, 537.761 501.075, 536.505 503 C 535.250 504.925, 534.060 506.950, 533.861 507.500 C 533.663 508.050, 531.877 510.975, 529.894 514 C 522.294 525.591, 507.635 549.093, 498.554 564.247 C 495.834 568.786, 489.954 578.125, 485.487 585 C 481.020 591.875, 476.414 599.075, 475.251 601 C 474.089 602.925, 471.516 607.200, 469.533 610.500 C 463.101 621.207, 439.401 659.354, 433.499 668.500 C 425.724 680.547, 410.254 705.499, 404.153 715.832 C 402.312 718.949, 398.890 724.425, 396.548 728 C 392.707 733.862, 386.542 743.759, 360.729 785.500 C 356.308 792.650, 347.922 806.055, 342.095 815.290 C 336.268 824.524, 328.246 837.349, 324.269 843.790 C 320.292 850.230, 314.442 859.684, 311.269 864.797 C 308.096 869.910, 303.475 877.473, 301 881.603 C 298.525 885.732, 293.175 894.374, 289.111 900.805 C 278.676 917.319, 268.690 933.329, 259.048 949 C 250.286 963.242, 249.228 964.935, 241.411 977.212 C 238.710 981.454, 234.700 987.898, 232.500 991.531 C 230.300 995.165, 227.150 1000.283, 225.500 1002.904 C 217.476 1015.651, 204.709 1035.889, 200.522 1042.500 C 197.131 1047.854, 195.934 1049.818, 188.025 1063 C 185.221 1067.675, 180.712 1074.875, 178.006 1079 C 175.300 1083.125, 171.927 1088.525, 170.511 1091 C 169.094 1093.475, 166.712 1097.399, 165.218 1099.721 C 161.267 1105.858, 150.749 1122.649, 149 1125.613 C 147.548 1128.073, 147.644 1128.284, 152 1132.221 C 154.475 1134.458, 158.750 1137.802, 161.500 1139.654 C 164.250 1141.505, 169.425 1145.250, 173 1147.976 C 180.186 1153.455, 184.074 1154.275, 188.115 1151.164 C 193.106 1147.322, 218.664 1136.167, 229.554 1133.078 C 232.884 1132.133, 236.124 1131.041, 236.754 1130.652 C 238.407 1129.630, 251.295 1126.423, 263.749 1123.933 C 273.442 1121.996, 279.421 1121.701, 324.500 1120.944 C 352 1120.481, 402.625 1119.417, 437 1118.578 C 640.797 1113.604, 775.014 1113.911, 854.500 1119.535 C 887.191 1121.847, 907.906 1124.088, 924.060 1127.058 C 929.868 1128.126, 935.718 1128.999, 937.060 1128.997 C 940.016 1128.993, 952.550 1132.401, 959.711 1135.155 C 966.124 1137.621, 968.273 1137.025, 970.261 1132.228 C 974.754 1121.389, 976 1117.984, 976 1116.550 C 976 1115.682, 977.592 1111.040, 979.538 1106.236 C 981.483 1101.431, 983.484 1095.925, 983.983 1094 C 984.483 1092.075, 986.960 1084.650, 989.487 1077.500 C 992.015 1070.350, 994.696 1062.700, 995.446 1060.500 C 996.196 1058.300, 998.714 1051.100, 1001.042 1044.500 C 1003.370 1037.900, 1006.111 1030.073, 1007.133 1027.108 C 1008.155 1024.142, 1009.392 1021.217, 1009.880 1020.608 C 1010.369 1019.998, 1011.238 1017.475, 1011.812 1015 C 1013.028 1009.756, 1019.486 990.829, 1021.069 987.871 C 1021.665 986.757, 1022.752 983.743, 1023.484 981.173 C 1025.058 975.641, 1027.660 968.301, 1029.038 965.500 C 1029.580 964.400, 1030.646 961.250, 1031.408 958.500 C 1032.169 955.750, 1033.992 950.350, 1035.458 946.500 C 1036.924 942.650, 1038.526 938.150, 1039.017 936.500 C 1039.969 933.304, 1047.704 911.164, 1051.070 902 C 1052.181 898.975, 1053.716 894.475, 1054.480 892 C 1055.245 889.525, 1056.545 885.666, 1057.370 883.425 C 1060.528 874.843, 1060.256 874.029, 1052.500 868.860 C 1048.650 866.293, 1042.800 862.773, 1039.500 861.036 C 1036.200 859.299, 1032.266 857.118, 1030.759 856.189 C 1027.628 854.260, 1024.712 855.337, 1024.209 858.607 C 1023.857 860.896, 1020.535 869.120, 1017.911 874.198 C 1016.860 876.232, 1016 878.434, 1016 879.092 C 1016 879.750, 1012.914 886.410, 1009.141 893.894 C 984.186 943.398, 952.326 980.314, 916.036 1001.774 C 906.209 1007.585, 879.647 1019.991, 877.019 1019.997 C 876.205 1019.999, 873.280 1020.853, 870.519 1021.896 C 862.553 1024.904, 846.996 1028.297, 828.500 1031.060 C 821.685 1032.078, 738.784 1033.445, 592 1034.959 C 418.782 1036.747, 428.696 1036.963, 432.015 1031.472 C 432.832 1030.120, 435.707 1025.298, 438.404 1020.757 C 441.101 1016.216, 445.376 1009.393, 447.904 1005.596 C 450.432 1001.798, 453.400 997.195, 454.500 995.367 C 461.893 983.080, 465.574 977.242, 467.028 975.500 C 467.945 974.400, 470.190 970.800, 472.015 967.500 C 473.841 964.200, 477.013 959.025, 479.065 956 C 481.118 952.975, 486.938 943.750, 491.999 935.500 C 497.060 927.250, 503.115 917.575, 505.454 914 C 507.792 910.425, 511.400 904.655, 513.470 901.177 C 515.540 897.699, 518.643 892.698, 520.367 890.064 C 522.090 887.429, 524.233 883.975, 525.128 882.387 C 527.102 878.886, 538.365 860.995, 549.293 844 C 562.699 823.150, 564 821.057, 564 820.335 C 564 819.953, 566.409 816.008, 569.354 811.570 C 574.083 804.443, 577.351 799.253, 591.750 776 C 593.623 772.975, 600.984 761.275, 608.107 750 C 622.007 727.998, 622.664 726.951, 634.457 708 C 638.735 701.125, 643.089 694.150, 644.134 692.500 C 645.178 690.850, 651.777 680.275, 658.798 669 C 665.818 657.725, 673.799 644.965, 676.531 640.645 C 679.264 636.325, 685.058 627.100, 689.407 620.145 C 697.106 607.832, 699.881 603.442, 708.455 590 C 714.599 580.369, 719.146 572.896, 721.011 569.366 C 721.921 567.643, 724.908 562.918, 727.649 558.866 C 730.390 554.815, 735.077 547.512, 738.066 542.637 C 741.055 537.763, 744.175 532.718, 745 531.427 C 746.601 528.921, 749.646 524.004, 760.438 506.500 C 764.167 500.450, 769.124 492.575, 771.453 489 C 773.781 485.425, 777.444 479.649, 779.593 476.164 C 781.742 472.680, 785.300 467.041, 787.500 463.634 C 791.984 456.691, 792.792 455.390, 796.587 449 C 798.057 446.525, 802.956 438.650, 807.473 431.500 C 811.991 424.350, 818.570 413.881, 822.094 408.235 C 825.617 402.589, 829.712 396.064, 831.193 393.735 C 832.675 391.406, 835.346 387.025, 837.129 384 C 838.912 380.975, 843.325 374.011, 846.936 368.524 C 850.546 363.037, 855.300 355.515, 857.500 351.808 C 861.644 344.826, 868.684 333.530, 874.829 324 C 876.780 320.975, 879.346 316.925, 880.531 315 C 881.717 313.075, 885.830 306.550, 889.673 300.500 C 893.515 294.450, 897.523 288.065, 898.579 286.311 C 899.636 284.557, 904.140 277.357, 908.588 270.311 C 913.037 263.265, 919.012 253.675, 921.866 249 C 924.720 244.325, 929.996 236, 933.589 230.500 C 937.183 225, 940.399 219.859, 940.735 219.076 C 941.072 218.293, 945.505 211.093, 950.586 203.076 C 955.667 195.059, 961.060 186.475, 962.569 184 C 964.861 180.243, 969.087 173.520, 976.740 161.454 C 977.421 160.379, 978.895 157.925, 980.014 156 C 981.133 154.075, 983.806 149.800, 985.954 146.500 C 988.103 143.200, 992.902 135.550, 996.620 129.500 C 1000.337 123.450, 1004.372 117.150, 1005.586 115.500 C 1006.799 113.850, 1009.799 109.125, 1012.251 105 C 1014.703 100.875, 1020.824 90.992, 1025.854 83.037 C 1030.884 75.083, 1035 68.028, 1035 67.359 C 1035 65.677, 1032.167 63, 1030.387 63 C 1029.579 63, 1025.245 61.200, 1020.757 59 C 1009.824 53.641, 1007.562 53.784, 997.500 60.475" fill="#EDE4D3"/></g>
</svg>
