<svg xmlns="http://www.w3.org/2000/svg" viewBox="14 10 743 143" width="743" height="143">
  <g fill="#EDE4D3">
    <!-- Z : barras con terminales biselados, diagonal continua -->
    <path d="M18.3,49.5 L94.3,49.5 L38.2,135.3 L87.9,135.3 L95.8,127.4 L95.8,148.8 L13.4,148.8 L71.7,62 L29.7,62 L18.3,72.2 Z"/>
    <!-- E -->
    <path d="M130,49 L195.5,49 L195.5,64 L145.5,64 L145.5,91.5 L188.5,91.5 L188.5,106.5 L145.5,106.5 L145.5,134 L196,134 L196,149 L130,149 Z"/>
    <!-- N : fustes + diagonal a 45 grados que nace y muere dentro de los fustes -->
    <path d="M235,49 L249.5,49 L249.5,149 L235,149 Z M306.5,49 L321,49 L321,149 L306.5,149 Z M237,49 L321,133 L321,149 L306.5,149 L306.5,138.5 L249.5,81.5 L249.5,49 Z"/>
    <!-- tilde caligrafica -->
    <path d="M252.6,36.6 C254.2,28.6 258.8,23.4 265.5,21.8 C272,21.7 279,24.6 284.5,26.6 C288.5,27.8 294,24.6 298.5,20.3 C297.6,24.8 295,30.2 291,34.6 C287.3,37.2 281,37.7 275.8,37.5 C270.3,35.2 266,33 263,31.9 C259,31.8 255.4,34.1 252.6,36.6 Z"/>
    <!-- O -->
    <path fill-rule="evenodd" d="M408.3,49.1 a50.2,50.2 0 1 0 0.02,0 Z M408.3,63.4 a35.9,35.9 0 1 1 -0.02,0 Z"/>
    <!-- R : fuste + anillo del lobulo + pierna -->
    <path d="M496,49.4 L511,49.4 L511,149 L496,149 Z"/>
    <path d="M511,49.4 L527,49.4 C544.5,49.4 558.7,63.7 558.7,81.4 C558.7,99.1 544.5,113.4 527,113.4 L511,113.4 L511,98.3 L529,98.3 C537.3,98.3 543.8,90.7 543.8,81.3 C543.8,71.9 537.3,64.3 529,64.3 L511,64.3 Z"/>
    <path d="M528,113 L543,110 L566.4,149 L549.5,149 Z"/>
    <!-- I aguda -->
    <path d="M601,49 L616,49 L616,149 L601,149 Z"/>
    <path d="M603.5,36 L613,17 L631,17 L621,36 Z"/>
    <!-- O -->
    <path fill-rule="evenodd" d="M702.7,49 a50.4,50.4 0 1 0 0.02,0 Z M702.7,63.8 a35.9,35.9 0 1 1 -0.02,0 Z"/>
  </g>
</svg>
