<svg xmlns="http://www.w3.org/2000/svg" width="1932" height="372" viewBox="0 0 1932 372" version="1.1">
	<path d="M 1582.728 8.692 C 1580.188 11.264, 1579.228 11.530, 1571.288 11.860 C 1562.621 12.221, 1562.621 12.221, 1558.311 16.531 C 1554.867 19.975, 1554 21.548, 1554 24.353 C 1554 27.082, 1553.357 28.322, 1551.114 29.919 C 1549.293 31.215, 1547.991 33.235, 1547.587 35.387 C 1547.235 37.263, 1546.251 39.377, 1545.400 40.083 C 1544.550 40.789, 1543.023 42.971, 1542.008 44.933 C 1540.993 46.895, 1539.226 49.283, 1538.081 50.240 C 1535.779 52.165, 1535.293 56.893, 1537.200 58.800 C 1538.029 59.629, 1543.137 60, 1553.716 60 L 1569.033 60 1591.516 37.516 C 1605.097 23.936, 1614 14.278, 1614 13.127 C 1614 12.079, 1613.141 10.159, 1612.091 8.861 C 1610.299 6.646, 1609.418 6.481, 1597.841 6.192 C 1585.500 5.883, 1585.500 5.883, 1582.728 8.692 M 649.187 21 C 647.123 23.352, 645.728 24, 642.729 24 C 637.222 24, 624 36.978, 624 42.384 C 624 45.076, 623.349 46.327, 621.122 47.913 C 616.189 51.425, 616.091 66, 621 66 C 622.061 66, 623.430 65.065, 624.042 63.922 C 626.098 60.080, 632.747 54, 634.892 54 C 636.061 54, 638.431 52.650, 640.157 51 C 644.109 47.223, 646.351 47.223, 650.653 51 C 653.823 53.783, 654.631 54, 661.847 54 C 669.328 54, 669.708 54.114, 671.842 57 C 673.933 59.829, 674.454 60, 680.953 60 C 686.847 60, 688.277 60.362, 690.818 62.500 C 694.577 65.663, 697.423 65.663, 701.182 62.500 C 703.685 60.394, 705.179 60, 710.656 60 C 717.011 60, 717.257 59.900, 721.579 55.579 C 724.011 53.147, 726 50.750, 726 50.250 C 726 49.751, 727.314 47.353, 728.919 44.921 C 731.579 40.893, 731.865 39.611, 732.139 30.500 C 732.305 25, 732.090 19.938, 731.661 19.250 C 730.318 17.096, 727.117 17.881, 725.543 20.750 C 723.332 24.779, 719.848 28.564, 717 30.030 C 715.625 30.738, 713.912 32.146, 713.193 33.159 C 711.365 35.735, 707.325 35.451, 703.818 32.500 C 701.238 30.329, 699.878 30, 693.491 30 C 686.460 30, 686.042 29.868, 684 27 C 682.263 24.561, 681.148 24, 678.033 24 C 675.712 24, 671.957 22.819, 668.500 21 C 664.173 18.724, 661.473 18, 657.308 18 C 652.461 18, 651.512 18.351, 649.187 21 M 570.526 90.958 C 569.837 92.073, 569.749 352.785, 570.437 353.899 C 571.201 355.134, 604.364 353.950, 605.500 352.647 C 606.158 351.892, 606.329 322.789, 606 267.500 C 605.725 221.300, 605.853 182.713, 606.285 181.750 C 607.358 179.358, 610.686 179.545, 612.039 182.073 C 613.758 185.286, 788.271 359.457, 791.919 361.602 C 798.376 365.397, 798 373.606, 798 229.009 C 798 128.758, 797.721 98.121, 796.800 97.200 C 794.945 95.345, 758.642 95.522, 757.089 97.393 C 756.232 98.425, 755.964 120.673, 756.055 183.345 C 756.122 229.852, 755.886 268.376, 755.530 268.952 C 754.433 270.727, 751.131 270.113, 749.954 267.915 C 749.341 266.768, 710.211 227.206, 663 180 C 615.789 132.794, 576.659 93.232, 576.046 92.085 C 574.897 89.938, 571.575 89.260, 570.526 90.958 M 1015 92.833 C 1010.185 95.168, 1008.038 95.542, 997.759 95.834 C 986.086 96.165, 986.005 96.184, 983.941 99.084 C 982.205 101.521, 981.167 102, 977.620 102 C 974.064 102, 973.017 102.486, 971.158 105 C 969.450 107.311, 968.159 108, 965.538 108 C 962.900 108, 961.657 108.673, 960 111 C 958.342 113.328, 957.101 114, 954.458 114 C 951.369 114, 949.235 115.811, 931.526 133.461 C 913.647 151.281, 912 153.216, 912 156.393 C 912 159.108, 911.347 160.329, 909 162 C 906.576 163.726, 906 164.859, 906 167.903 C 906 170.827, 905.329 172.267, 903 174.342 C 900.255 176.788, 900 177.562, 900 183.440 C 900 189.436, 899.800 190.006, 897 192 C 894 194.136, 894 194.136, 894 225.431 C 894 256.725, 894 256.725, 897 260.500 C 899.440 263.571, 900 265.219, 900 269.333 C 900 273.358, 900.508 274.920, 902.486 276.985 C 904.013 278.580, 905.359 281.620, 905.975 284.869 C 907.135 290.985, 909.608 294.561, 921.002 306.601 C 922.096 307.756, 923.289 310.231, 923.655 312.101 C 924.281 315.303, 926.620 317.944, 937.291 327.501 C 938.826 328.875, 941.261 330, 942.704 330 C 944.612 330, 946.872 331.635, 951 336 C 955.888 341.168, 957.172 342, 960.269 342 C 963.122 342, 964.305 342.619, 966 345 C 967.752 347.461, 968.842 348, 972.060 348 C 975.160 348, 976.546 348.630, 978.658 351 C 981.239 353.897, 981.628 354, 990 354 C 998.406 354, 998.752 354.093, 1001.391 357.055 C 1004.113 360.109, 1004.113 360.109, 1025.306 359.805 C 1046.500 359.500, 1046.500 359.500, 1050.390 356.750 C 1053.627 354.461, 1055.323 354, 1060.502 354 C 1065.911 354, 1067.219 353.608, 1070.500 351 C 1073.509 348.609, 1075.248 348, 1079.069 348 C 1083.255 348, 1084.135 347.619, 1086 345 C 1087.695 342.619, 1088.878 342, 1091.731 342 C 1094.828 342, 1096.112 341.168, 1101 336 C 1104.121 332.700, 1107.097 330, 1107.614 330 C 1111.065 330, 1127 314.641, 1127 311.315 C 1127 310.508, 1129.925 307.007, 1133.500 303.536 C 1138.750 298.440, 1140 296.628, 1140 294.121 C 1140 291.931, 1140.885 290.227, 1143 288.342 C 1145.329 286.267, 1146 284.827, 1146 281.903 C 1146 278.859, 1146.576 277.726, 1149 276 C 1151.787 274.016, 1152 273.419, 1152 267.597 C 1152 261.895, 1152.270 261.090, 1155 258.658 C 1158 255.985, 1158 255.985, 1158 225.060 C 1158 194.136, 1158 194.136, 1155 192 C 1152.166 189.982, 1152 189.485, 1152 183 C 1152 176.515, 1151.834 176.018, 1149 174 C 1146.642 172.321, 1146 171.113, 1146 168.352 C 1146 165.393, 1145.055 163.895, 1140 158.840 C 1135.365 154.205, 1134 152.165, 1134 149.875 C 1134 147.387, 1131.761 144.706, 1120.080 133.205 C 1104.524 117.890, 1099.730 114, 1096.407 114 C 1095.025 114, 1093.300 112.825, 1092 111 C 1090.339 108.667, 1089.103 108, 1086.440 108 C 1083.896 108, 1082.328 107.229, 1080.342 105 C 1078.229 102.628, 1076.846 102, 1073.736 102 C 1070.655 102, 1069.195 101.350, 1067 99 C 1064.228 96.033, 1064.082 96, 1053.634 96 C 1043.322 96, 1042.988 95.928, 1039.653 93 C 1034.881 88.810, 1023.457 88.733, 1015 92.833 M 1786.234 93.029 C 1783.013 95.959, 1782.812 96, 1771.552 96 C 1760.136 96, 1760.136 96, 1758 99 C 1756.251 101.456, 1755.156 102, 1751.962 102 C 1748.786 102, 1747.647 102.558, 1745.842 105 C 1744.064 107.404, 1742.880 108, 1739.880 108 C 1736.862 108, 1735.722 108.581, 1734 111 C 1732.333 113.341, 1731.106 114, 1728.413 114 C 1725.263 114, 1723.262 115.700, 1705.481 133.481 C 1687.458 151.504, 1686 153.229, 1686 156.528 C 1686 159.441, 1685.453 160.404, 1683.006 161.797 C 1680.432 163.261, 1680.012 164.086, 1680.006 167.682 C 1680.001 171.183, 1679.512 172.211, 1677 174 C 1674.166 176.018, 1674 176.515, 1674 183 C 1674 189.485, 1673.834 189.982, 1671 192 C 1668 194.136, 1668 194.136, 1668 225.418 C 1668 256.699, 1668 256.699, 1670.982 261.100 C 1673.225 264.410, 1673.968 266.657, 1673.982 270.173 C 1673.995 273.662, 1674.624 275.588, 1676.461 277.771 C 1677.814 279.379, 1679.339 282.555, 1679.850 284.827 C 1680.874 289.384, 1687.094 299.438, 1689.449 300.342 C 1690.861 300.884, 1692.826 304.088, 1696.540 311.909 C 1698.588 316.219, 1705.800 323.487, 1709.036 324.501 C 1710.391 324.926, 1712.772 326.337, 1714.327 327.637 C 1715.881 328.937, 1717.642 330, 1718.240 330 C 1718.837 330, 1721.879 332.700, 1725 336 C 1729.888 341.168, 1731.172 342, 1734.269 342 C 1737.122 342, 1738.305 342.619, 1740 345 C 1741.752 347.461, 1742.842 348, 1746.060 348 C 1749.160 348, 1750.546 348.630, 1752.658 351 C 1755.264 353.925, 1755.562 354, 1764.597 354 C 1773.752 354, 1773.890 354.036, 1776 357 C 1778.136 360, 1778.136 360, 1800 360 C 1821.864 360, 1821.864 360, 1824 357 C 1826.061 354.106, 1826.412 354, 1833.931 354 C 1841.085 354, 1842.035 353.754, 1845.500 351 C 1848.371 348.718, 1850.303 348, 1853.569 348 C 1857.200 348, 1858.194 347.536, 1860 345 C 1861.668 342.658, 1862.894 342, 1865.592 342 C 1868.762 342, 1870.906 340.146, 1891.524 319.575 C 1912.290 298.856, 1914 296.884, 1914 293.643 C 1914 290.888, 1914.643 289.678, 1917 288 C 1919.447 286.257, 1920 285.152, 1920 282 C 1920 278.848, 1920.553 277.743, 1923 276 C 1925.627 274.129, 1926 273.261, 1926 269.014 C 1926 262.827, 1926.708 261.061, 1929.636 259.948 C 1932 259.050, 1932 259.050, 1932 226.244 C 1932 193.438, 1932 193.438, 1929 192.306 C 1926.033 191.186, 1926 191.091, 1926 183.655 C 1926 176.442, 1925.878 176.049, 1923 174 C 1920.619 172.305, 1920 171.122, 1920 168.269 C 1920 165.172, 1919.168 163.888, 1914 159 C 1909.110 154.376, 1908 152.737, 1908 150.141 C 1908 145.130, 1876.639 114, 1871.590 114 C 1868.894 114, 1867.668 113.342, 1866 111 C 1864.257 108.553, 1863.152 108, 1860 108 C 1856.848 108, 1855.743 107.447, 1854 105 C 1852.135 102.381, 1851.255 102, 1847.069 102 C 1843.248 102, 1841.509 101.391, 1838.500 99 C 1834.893 96.133, 1834.294 96, 1825.050 96 C 1815.605 96, 1815.306 95.929, 1812.500 93 C 1809.675 90.051, 1809.455 90, 1799.563 90.029 C 1789.822 90.058, 1789.396 90.154, 1786.234 93.029 M 99.250 95.750 L 0 96.010 0 123.005 L 0 150 4.614 150 C 9.108 150, 9.457 149.766, 18 141 C 22.824 136.050, 27.436 132, 28.248 132 C 29.060 132, 31.429 130.646, 33.512 128.991 C 37.298 125.982, 37.298 125.982, 87.399 126.241 C 137.020 126.498, 137.503 126.520, 137.793 128.546 C 137.975 129.816, 136.931 131.622, 135.043 133.304 C 133.097 135.038, 132 136.973, 132 138.671 C 132 140.619, 130.402 142.837, 126 147 C 121.066 151.665, 120 153.250, 120 155.917 C 120 158.547, 118.866 160.294, 114 165.160 C 109.484 169.676, 108 171.862, 108 174 C 108 176.138, 106.516 178.324, 102 182.840 C 97.885 186.955, 96 189.621, 96 191.325 C 96 193.742, 91.189 200.423, 86.512 204.500 C 85.250 205.600, 83.941 208.030, 83.604 209.899 C 83.266 211.769, 82.110 214.244, 81.034 215.399 C 79.958 216.555, 77.717 218.911, 76.055 220.636 C 69.028 227.927, 66 232.260, 66 235.027 C 66 237.013, 65.134 238.480, 63.111 239.921 C 61.522 241.052, 59.946 243.078, 59.609 244.424 C 58.556 248.618, 54.741 254.025, 48.250 260.520 C 43.128 265.645, 42 267.366, 42 270.050 C 42 272.757, 40.958 274.312, 36 279 C 31.007 283.722, 30 285.232, 30 288 C 30 290.753, 28.992 292.288, 24.145 296.913 C 20.816 300.089, 17.985 303.758, 17.584 305.415 C 16.809 308.619, 14.130 312.555, 9.449 317.365 C 7.772 319.089, 5.624 321.738, 4.676 323.250 C 3.729 324.762, 2.289 326, 1.477 326 C 0.245 326, 0 328.319, 0 340 L 0 354 50.851 354 C 101.702 354, 101.702 354, 106.601 356.750 C 111.500 359.500, 111.500 359.500, 156.626 359.751 C 192.490 359.951, 201.973 359.738, 202.823 358.713 C 204.016 357.276, 204.707 302.952, 203.556 301.091 C 202.403 299.224, 199.127 299.893, 197.874 302.250 C 197.216 303.488, 195.604 305.625, 194.291 307 C 192.977 308.375, 190.125 311.413, 187.951 313.750 L 184 318 122.559 318 C 82.677 318, 60.901 318.351, 60.500 319 C 60.160 319.550, 58.784 320, 57.441 320 C 52.894 320, 54.204 315.168, 60.500 308.720 C 64.118 305.014, 66 302.254, 66 300.652 C 66 298.157, 71.987 290.098, 75.851 287.392 C 77.297 286.379, 78 284.828, 78 282.650 C 78 280.056, 79.159 278.221, 83.833 273.415 C 87.646 269.494, 89.899 266.253, 90.338 264.059 C 91.048 260.512, 91.228 260.282, 101.474 249.863 C 106.830 244.416, 108 242.638, 108 239.950 C 108 237.243, 109.042 235.688, 114 231 C 118.993 226.278, 120 224.768, 120 222 C 120 219.232, 121.007 217.722, 126 213 C 130.993 208.278, 132 206.768, 132 204 C 132 201.232, 133.007 199.722, 138 195 C 142.993 190.278, 144 188.768, 144 186 C 144 183.232, 145.007 181.722, 150 177 C 154.993 172.278, 156 170.768, 156 168 C 156 165.232, 157.007 163.722, 162 159 C 166.984 154.287, 168 152.765, 168 150.013 C 168 147.280, 169.006 145.744, 173.750 141.238 C 176.912 138.234, 179.962 134.589, 180.527 133.138 C 182.413 128.291, 185.469 123.576, 188.750 120.453 C 191.133 118.183, 192 116.479, 192 114.062 C 192 110.709, 196.963 104.696, 201.922 102.042 C 205.461 100.148, 203.141 94.096, 199.316 95.245 C 198.867 95.380, 153.838 95.607, 99.250 95.750 M 295.200 97.200 C 293.816 98.584, 293.433 350.559, 294.812 352.729 C 295.591 353.956, 465.894 354.801, 467.857 353.589 C 468.999 352.883, 467.971 320.761, 466.759 319.250 C 465.975 318.274, 451.818 318, 402.078 318 C 353.884 318, 338.108 317.708, 337.200 316.800 C 335.481 315.081, 335.481 248.919, 337.200 247.200 C 338.104 246.296, 351.884 246, 393.078 246 C 438.327 246, 447.952 245.762, 448.900 244.621 C 449.694 243.664, 449.961 237.313, 449.772 223.871 L 449.500 204.500 394.048 204.205 C 356.319 204.004, 338.181 203.565, 337.298 202.832 C 335.489 201.331, 335.395 135.005, 337.200 133.200 C 338.108 132.292, 353.867 132, 402 132 C 450.133 132, 465.892 131.708, 466.800 130.800 C 467.631 129.969, 468 124.800, 468 114 C 468 103.200, 467.631 98.031, 466.800 97.200 C 465.061 95.461, 296.939 95.461, 295.200 97.200 M 1255.200 97.200 C 1253.457 98.943, 1253.457 351.057, 1255.200 352.800 C 1256.892 354.492, 1293.108 354.492, 1294.800 352.800 C 1295.696 351.904, 1296 340.800, 1296 309 C 1296 277.200, 1296.304 266.096, 1297.200 265.200 C 1298.048 264.352, 1303.922 264, 1317.250 264 C 1338.668 264, 1341.052 264.599, 1342.989 270.466 C 1343.624 272.391, 1345.462 274.905, 1347.072 276.051 C 1349.384 277.697, 1350 278.896, 1350 281.747 C 1350 284.545, 1350.798 286.162, 1353.548 288.929 C 1360.373 295.799, 1361.097 296.821, 1361.682 300.426 C 1362.073 302.836, 1363.209 304.724, 1365.059 306.042 C 1366.592 307.134, 1368.132 309.324, 1368.480 310.910 C 1368.828 312.495, 1369.988 314.584, 1371.057 315.551 C 1372.126 316.519, 1373 317.967, 1373 318.770 C 1373 319.573, 1374.510 321.641, 1376.356 323.365 C 1378.316 325.196, 1379.983 327.914, 1380.361 329.899 C 1381.009 333.293, 1381.772 334.348, 1388.452 341.071 C 1391.182 343.818, 1392 345.462, 1392 348.199 C 1392 350.155, 1392.584 352.240, 1393.298 352.832 C 1394.730 354.020, 1437.089 354.681, 1438.929 353.544 C 1440.938 352.302, 1440.006 349.140, 1437 347 C 1434.685 345.351, 1434 344.096, 1434 341.500 C 1434 338.933, 1433.316 337.649, 1431.114 336.081 C 1429.196 334.716, 1427.992 332.771, 1427.526 330.288 C 1426.823 326.541, 1426.130 325.554, 1419.548 318.929 C 1416.904 316.268, 1416 314.506, 1416 312.016 C 1416 309.228, 1415.005 307.733, 1410 303 C 1404.832 298.112, 1404 296.828, 1404 293.731 C 1404 290.888, 1403.380 289.695, 1401.038 288.027 C 1399.045 286.608, 1397.852 284.703, 1397.393 282.209 C 1396.708 278.480, 1396.090 277.582, 1389.557 270.817 C 1386.844 268.008, 1386 266.294, 1386 263.593 C 1386 260.669, 1385.477 259.781, 1383 258.500 C 1379.285 256.579, 1379.040 253.395, 1382.486 251.824 C 1383.853 251.201, 1385.646 249.662, 1386.471 248.404 C 1387.564 246.736, 1389.109 246.033, 1392.175 245.808 C 1396.583 245.485, 1397.723 244.115, 1403.276 232.454 C 1404.074 230.779, 1405.914 228.631, 1407.364 227.681 C 1408.814 226.731, 1410 225.357, 1410 224.627 C 1410 223.898, 1411.342 221.321, 1412.982 218.900 C 1415.170 215.671, 1415.968 213.317, 1415.982 210.055 C 1415.996 206.582, 1416.602 204.982, 1418.750 202.741 C 1421.500 199.873, 1421.500 199.873, 1421.805 179.044 C 1422.110 158.215, 1422.110 158.215, 1419.055 156.039 C 1416.177 153.990, 1416 153.482, 1416 147.269 C 1416 140.674, 1416 140.674, 1410.079 135.074 C 1406.604 131.789, 1403.856 128.240, 1403.428 126.487 C 1403.027 124.844, 1401.401 121.925, 1399.815 120 C 1398.228 118.075, 1396.478 115.938, 1395.926 115.250 C 1395.373 114.563, 1393.395 114, 1391.529 114 C 1388.901 114, 1387.655 113.324, 1386 111 C 1384.257 108.553, 1383.152 108, 1380 108 C 1376.848 108, 1375.743 107.447, 1374 105 C 1371.982 102.166, 1371.485 102, 1365 102 C 1358.515 102, 1358.018 101.834, 1356 99 C 1353.864 96, 1353.864 96, 1305.132 96 C 1268.563 96, 1256.101 96.299, 1255.200 97.200 M 1532.923 98.923 C 1530 101.846, 1530 101.846, 1530 226.400 C 1530 350.954, 1530 350.954, 1532.250 352.415 C 1534.680 353.993, 1568.519 355.034, 1570.836 353.602 C 1572.547 352.544, 1572.512 98.912, 1570.800 97.200 C 1569.961 96.361, 1564.516 96, 1552.723 96 C 1535.846 96, 1535.846 96, 1532.923 98.923 M 996 135 C 994.257 137.447, 993.152 138, 990 138 C 986.889 138, 985.739 138.558, 984.096 140.865 C 982.726 142.790, 980.866 143.922, 978.426 144.318 C 976.429 144.642, 973.829 145.838, 972.647 146.974 C 948.805 169.919, 948 170.814, 948 174.375 C 948 177.110, 947.352 178.325, 945 180 C 942.553 181.743, 942 182.848, 942 186 C 942 189.152, 941.447 190.257, 939 192 C 936 194.136, 936 194.136, 936 225 C 936 255.864, 936 255.864, 939 258 C 941.447 259.743, 942 260.848, 942 264 C 942 267.152, 942.553 268.257, 945 270 C 947.343 271.669, 948 272.893, 948 275.595 C 948 278.703, 949.369 280.423, 961.473 292.527 C 968.883 299.937, 975.571 306, 976.335 306 C 977.100 306, 979.424 307.350, 981.500 309 C 984.371 311.282, 986.303 312, 989.569 312 C 993.200 312, 994.194 312.464, 996 315 C 998.136 318, 998.136 318, 1026.931 318 C 1055.725 318, 1055.725 318, 1059.500 315 C 1061.685 313.264, 1064.466 312, 1066.103 312 C 1067.819 312, 1070.274 310.820, 1072.347 309 C 1074.226 307.350, 1076.054 306, 1076.409 306 C 1078.373 306, 1104.107 278.715, 1104.635 276.073 C 1104.958 274.460, 1106.297 272.130, 1107.611 270.896 C 1109.376 269.237, 1109.998 267.587, 1109.991 264.576 C 1109.984 261.239, 1110.536 260.044, 1113.041 257.985 C 1116.100 255.470, 1116.100 255.470, 1116.095 224.996 C 1116.091 194.522, 1116.091 194.522, 1113.036 192.011 C 1110.707 190.096, 1109.984 188.686, 1109.991 186.071 C 1109.998 183.520, 1109.168 181.821, 1106.750 179.436 C 1102.147 174.896, 1099.422 170.951, 1098.614 167.660 C 1097.928 164.865, 1084.048 150, 1082.125 150 C 1081.591 150, 1079.851 148.904, 1078.260 147.565 C 1076.668 146.226, 1074.153 144.826, 1072.672 144.454 C 1071.190 144.082, 1069.052 142.478, 1067.921 140.889 C 1066.260 138.557, 1065.119 138, 1062 138 C 1058.848 138, 1057.743 137.447, 1056 135 C 1053.864 132, 1053.864 132, 1026 132 C 998.136 132, 998.136 132, 996 135 M 1297.200 133.200 C 1295.473 134.927, 1295.473 225.073, 1297.200 226.800 C 1298.043 227.643, 1303.324 227.978, 1314.950 227.927 C 1335.288 227.837, 1340.885 227.115, 1343.794 224.206 C 1345.530 222.470, 1347.163 222, 1351.465 222 C 1356.112 222, 1357.442 221.551, 1360.347 219 C 1362.226 217.350, 1364.078 216, 1364.461 216 C 1364.844 216, 1367.147 214.011, 1369.579 211.579 C 1373.263 207.895, 1374.001 206.519, 1374.006 203.329 C 1374.012 200.126, 1374.502 199.222, 1377.006 197.797 C 1380 196.093, 1380 196.093, 1380 180.115 C 1380 164.136, 1380 164.136, 1377 162 C 1374.651 160.327, 1374 159.109, 1374 156.384 C 1374 151.086, 1360.782 138, 1355.430 138 C 1352.783 138, 1350.815 137.167, 1348.347 135 C 1344.930 132, 1344.930 132, 1321.665 132 C 1304.903 132, 1298.065 132.335, 1297.200 133.200 M 1770.342 135 C 1768.267 137.329, 1766.827 138, 1763.903 138 C 1760.859 138, 1759.726 138.576, 1758 141 C 1756.314 143.367, 1755.116 144, 1752.320 144 C 1747.193 144, 1722 169.427, 1722 174.601 C 1722 177.085, 1721.284 178.374, 1719 180 C 1716.581 181.722, 1716 182.861, 1716 185.881 C 1716 188.737, 1715.288 190.308, 1713 192.500 C 1710 195.374, 1710 195.374, 1710 225.619 C 1710 255.864, 1710 255.864, 1713 258 C 1715.579 259.836, 1716 260.773, 1716 264.674 C 1716 268.055, 1716.637 269.969, 1718.500 272.182 C 1719.875 273.816, 1721 275.790, 1721 276.567 C 1721 278.096, 1748.321 306, 1749.818 306 C 1750.317 306, 1752.424 307.350, 1754.500 309 C 1757.509 311.391, 1759.248 312, 1763.069 312 C 1767.255 312, 1768.135 312.381, 1770 315 C 1772.136 318, 1772.136 318, 1800 318 C 1827.864 318, 1827.864 318, 1830 315 C 1831.984 312.213, 1832.581 312, 1838.403 312 C 1843.918 312, 1844.993 311.670, 1847.367 309.250 C 1848.851 307.738, 1851.738 305.051, 1853.783 303.280 C 1862.120 296.058, 1879 278.420, 1879 276.929 C 1879 276.302, 1880.125 274.452, 1881.500 272.818 C 1883.391 270.571, 1883.998 268.708, 1883.991 265.173 C 1883.983 261.238, 1884.444 260.105, 1886.907 258 C 1889.833 255.500, 1889.833 255.500, 1890.076 239 C 1890.209 229.925, 1890.247 216.067, 1890.159 208.203 C 1890 193.907, 1890 193.907, 1887.006 192.203 C 1884.432 190.739, 1884.012 189.914, 1884.006 186.318 C 1884.001 182.835, 1883.508 181.786, 1881.059 180.042 C 1879.442 178.890, 1877.815 176.947, 1877.444 175.724 C 1877.073 174.501, 1875.974 172.600, 1875 171.500 C 1874.026 170.400, 1872.896 168.403, 1872.488 167.062 C 1872.080 165.721, 1867.060 159.983, 1861.333 154.312 C 1852.236 145.302, 1850.493 144, 1847.529 144 C 1844.901 144, 1843.655 143.324, 1842 141 C 1840.171 138.431, 1839.220 138, 1835.382 138 C 1830.729 138, 1826.294 136.264, 1824.055 133.566 C 1822.939 132.222, 1819.237 132, 1797.885 132 C 1773.015 132, 1773.015 132, 1770.342 135" stroke="none" fill="#EDE4D3" fill-rule="evenodd"/>
</svg>