<svg xmlns="http://www.w3.org/2000/svg" viewBox="13.5 -16.8 1592.0 313.3" fill="#EDE4D3" role="img" aria-label="Zeñorío"><g><path d="M 1291.169 2.750 C 1289.278 6.848, 1285.871 12.800, 1281.726 19.245 C 1279.693 22.406, 1277.372 26.568, 1276.566 28.495 C 1275.761 30.423, 1274.659 32, 1274.118 32 C 1272.511 32, 1271.738 35.979, 1273.040 37.548 C 1274.424 39.216, 1290.374 39.625, 1295.507 38.125 C 1298.416 37.275, 1334 2.852, 1334 0.887 C 1334 0.399, 1324.650 0, 1313.219 0 L 1292.438 0 1291.169 2.750 M 620.556 9.911 C 614.441 19.598, 608.504 19.963, 587.500 11.945 C 573.217 6.493, 566.164 5.801, 557.026 8.955 C 544.547 13.262, 531.144 33.728, 536.041 41 C 536.883 42.251, 537.586 41.893, 540.275 38.844 C 544.758 33.762, 553.242 29.666, 557.896 30.337 C 563.654 31.167, 575.156 34.684, 579.461 36.932 C 581.640 38.069, 584.790 39.003, 586.461 39.006 C 588.133 39.009, 591.172 39.475, 593.215 40.043 C 599.232 41.714, 612.567 38.664, 616.830 34.642 C 624.444 27.459, 626.456 23.263, 626.479 14.521 C 626.505 4.785, 624.686 3.370, 620.556 9.911 M 496.035 64.934 C 495.341 66.232, 495 100.763, 495 169.812 C 495 264.194, 495.137 272.869, 496.648 274.122 C 498.713 275.837, 522.365 276.185, 524.623 274.534 C 525.886 273.610, 526.096 266.411, 526.096 223.978 C 526.096 196.765, 525.783 166.806, 525.401 157.402 C 524.630 138.413, 525.029 135, 528.019 135 C 529.109 135, 530 135.428, 530 135.952 C 530 137.180, 639.121 246.050, 659.706 265.359 C 668.616 273.717, 676.061 279.942, 676.945 279.772 C 678.338 279.504, 678.527 268.508, 678.755 174.213 L 679.009 68.954 676.255 67.903 C 672.783 66.577, 650.475 67.119, 649.034 68.563 C 648.310 69.289, 647.957 90.420, 647.919 135.244 C 647.889 171.334, 647.525 202.131, 647.110 203.681 C 646.695 205.232, 645.699 206.627, 644.897 206.781 C 644.079 206.939, 611.640 175.384, 571.135 135.031 C 531.370 95.414, 498.437 63, 497.952 63 C 497.467 63, 496.605 63.870, 496.035 64.934 M 849.257 65.998 C 835.343 67.814, 831.236 69.003, 816.903 75.358 C 813.825 76.722, 809.325 79.242, 806.903 80.956 C 804.482 82.670, 800.925 85.143, 799 86.451 C 789.891 92.641, 770 115.180, 770 119.312 C 770 119.796, 769.188 121.386, 768.194 122.846 C 766.541 125.277, 764.158 131.237, 759.537 144.500 C 755.348 156.524, 755.041 187.957, 759.014 198.036 C 760.106 200.807, 761.004 203.845, 761.008 204.787 C 761.019 207.222, 770.344 227.349, 773.152 231 C 783.346 244.253, 792.915 253.585, 804.500 261.567 C 808.576 264.376, 820.318 270, 822.107 270 C 822.903 270, 824.643 270.762, 825.973 271.693 C 827.302 272.625, 831.340 273.976, 834.945 274.696 C 838.550 275.416, 843.975 276.519, 847 277.147 C 860.026 279.851, 886.980 277.082, 898.834 271.822 C 925.933 259.798, 935.700 252.101, 951.500 230.321 C 956.906 222.870, 961.846 212.083, 965.158 200.500 C 971.329 178.918, 969.972 150.677, 961.939 133.500 C 960.910 131.300, 959.604 128.375, 959.036 127 C 956.892 121.810, 948.121 108, 946.969 108 C 946.510 108, 945.833 107.051, 945.465 105.890 C 943.589 99.979, 921.339 81.927, 908 75.493 C 897.276 70.322, 884.654 67.011, 866 64.478 C 864.625 64.291, 857.091 64.975, 849.257 65.998 M 1478.989 64.332 C 1478.708 64.620, 1473.533 65.557, 1467.489 66.414 C 1442.654 69.936, 1419.517 83.598, 1400.907 105.732 C 1396.558 110.904, 1393 115.720, 1393 116.433 C 1393 117.147, 1392.160 118.803, 1391.134 120.115 C 1388.710 123.212, 1384.072 134.328, 1382.947 139.736 C 1382.462 142.066, 1381.276 145.441, 1380.311 147.236 C 1378.800 150.046, 1378.552 153.420, 1378.528 171.500 C 1378.502 190.799, 1378.682 193.007, 1380.750 198.754 C 1381.987 202.194, 1383 205.703, 1383 206.553 C 1383 212.172, 1398.362 236.956, 1407.760 246.500 C 1414.081 252.918, 1430.252 264.943, 1432.615 264.982 C 1433.228 264.992, 1434.803 265.838, 1436.115 266.862 C 1437.427 267.887, 1439.625 269.053, 1441 269.453 C 1442.375 269.853, 1446.277 271.265, 1449.671 272.591 C 1453.064 273.916, 1457.170 275, 1458.795 275 C 1460.419 275, 1463.718 275.729, 1466.124 276.620 C 1472.191 278.866, 1496.752 278.927, 1502.500 276.710 C 1504.700 275.862, 1508.314 274.961, 1510.532 274.708 C 1512.749 274.456, 1516.662 273.293, 1519.227 272.124 C 1521.792 270.956, 1524.217 270, 1524.616 270 C 1526.148 270, 1538.662 263.464, 1543.955 259.900 C 1551.892 254.555, 1564.234 242.278, 1572.226 231.778 C 1576.804 225.764, 1584.603 209.023, 1587.416 199.171 C 1589.950 190.301, 1590.067 188.899, 1589.789 170.671 C 1589.521 153.054, 1589.275 150.785, 1586.759 142.673 C 1583.694 132.795, 1576.995 118.439, 1573.679 114.646 C 1572.480 113.275, 1570.375 110.489, 1569 108.456 C 1562.417 98.722, 1550.827 87.850, 1540.080 81.327 C 1532.942 76.995, 1522.852 72, 1521.195 71.978 C 1520.263 71.966, 1517.546 71.069, 1515.158 69.986 C 1509.251 67.305, 1480.477 62.807, 1478.989 64.332 M 40.750 68.080 C 37.921 69.728, 38.110 107.884, 40.960 110.464 C 43.453 112.720, 47.604 111.824, 48.556 108.824 C 49.596 105.545, 57.940 97.071, 62.334 94.830 C 66.001 92.959, 68.513 92.839, 107.344 92.674 C 144.663 92.516, 148.501 92.651, 148.786 94.131 C 149.113 95.825, 147.254 98.992, 139.473 110 C 136.946 113.575, 132.994 119.301, 130.689 122.725 C 128.385 126.150, 123.442 133.350, 119.704 138.725 C 115.966 144.101, 110.025 152.775, 106.502 158 C 102.979 163.225, 98.461 169.750, 96.461 172.500 C 93 177.259, 90.824 180.565, 86.635 187.429 C 85.609 189.110, 83.722 191.730, 82.442 193.252 C 81.161 194.774, 76.732 201.077, 72.600 207.259 C 68.467 213.442, 63.734 220.300, 62.081 222.500 C 60.429 224.700, 58.323 227.850, 57.401 229.500 C 56.480 231.150, 54.325 234.268, 52.613 236.428 C 50.901 238.589, 48.600 241.815, 47.500 243.597 C 46.400 245.379, 43.744 249.462, 41.598 252.669 C 39.452 255.876, 36.550 260.300, 35.148 262.500 C 33.747 264.700, 31.753 267.468, 30.718 268.652 C 29.682 269.836, 28.985 271.812, 29.168 273.044 L 29.500 275.285 72.500 275.498 C 96.150 275.615, 134.416 276.051, 157.535 276.466 C 196.988 277.176, 199.661 277.114, 201.035 275.460 C 202.171 274.094, 202.570 269.720, 202.812 255.977 C 203.224 232.553, 201.525 226.169, 197.145 234.685 C 193.862 241.069, 190.163 243.784, 181.855 245.909 C 174.904 247.687, 170.611 247.838, 128.647 247.787 C 83.252 247.730, 83 247.719, 83 245.672 C 83 243.885, 98.300 220.177, 106.989 208.500 C 108.626 206.300, 110.279 203.825, 110.663 203 C 112.119 199.868, 116.604 193.313, 120.585 188.500 C 122.859 185.750, 125.345 182.299, 126.110 180.832 C 126.874 179.365, 129.939 174.640, 132.920 170.332 C 135.901 166.024, 143.776 154.446, 150.420 144.603 C 171.362 113.575, 177.375 104.724, 183.101 96.500 C 186.165 92.100, 189.955 86.250, 191.523 83.500 C 193.091 80.750, 195.640 77.022, 197.187 75.215 C 200.492 71.356, 200.724 69.458, 198.066 68.035 C 195.413 66.615, 43.190 66.659, 40.750 68.080 M 276.217 67.829 C 274.658 68.838, 274.276 272.676, 275.831 274.231 C 277.162 275.562, 412.643 275.541, 414.248 274.209 C 415.998 272.757, 415.803 248.673, 414.024 246.528 C 412.915 245.193, 406.166 245, 360.538 245 L 308.321 245 307.353 242.750 C 305.741 239.002, 306.586 188.986, 308.290 187.281 C 309.448 186.123, 317.260 185.898, 353.795 185.968 C 396.632 186.051, 397.931 185.998, 398.950 184.093 C 400.492 181.212, 400.323 158.511, 398.750 157.215 C 397.940 156.548, 382.178 156.139, 354 156.054 C 313.457 155.933, 310.376 155.801, 308.679 154.113 C 305.806 151.256, 305.561 102.247, 308.405 99.105 C 310.293 97.019, 310.753 97, 360.033 97 C 399.298 97, 409.979 96.730, 410.821 95.716 C 412.554 93.628, 413.131 71.562, 411.511 69.345 C 410.226 67.588, 406.996 67.488, 343.831 67.250 C 307.349 67.112, 276.923 67.373, 276.217 67.829 M 1048.066 68.934 C 1046.055 70.945, 1046.037 71.838, 1046.010 170.860 C 1045.984 264.759, 1046.088 270.881, 1047.741 272.832 C 1049.329 274.706, 1050.776 274.937, 1062.590 275.204 C 1072.560 275.429, 1076.076 275.173, 1077.340 274.128 C 1078.827 272.898, 1079.002 269.195, 1079.015 238.628 C 1079.024 219.857, 1079.367 203.972, 1079.777 203.326 C 1080.827 201.676, 1107.458 200.891, 1111.933 202.378 C 1113.789 202.995, 1115.801 204.400, 1116.404 205.500 C 1117.007 206.600, 1120.390 212, 1123.923 217.500 C 1127.456 223, 1131.918 229.975, 1133.839 233 C 1141.831 245.585, 1144.088 249.081, 1151.906 260.990 C 1156.416 267.859, 1160.819 273.879, 1161.690 274.366 C 1163.170 275.195, 1166.233 275.283, 1186.281 275.079 C 1194.554 274.995, 1196.709 273.633, 1194.140 270.114 C 1193.492 269.226, 1191.733 266.519, 1190.231 264.097 C 1188.729 261.675, 1184.844 255.600, 1181.599 250.597 C 1178.353 245.594, 1174.640 239.813, 1173.349 237.750 C 1172.057 235.688, 1169.935 232.313, 1168.634 230.250 C 1167.333 228.188, 1162.768 220.650, 1158.490 213.500 C 1154.213 206.350, 1149.780 199.467, 1148.640 198.205 C 1145.999 195.281, 1146.893 193.693, 1153.828 188.990 C 1159.657 185.038, 1166.488 177.241, 1171.456 168.869 C 1178.880 156.359, 1182.371 129.455, 1178.224 116.719 C 1177.110 113.298, 1175.922 109.268, 1175.583 107.762 C 1175.245 106.256, 1173.610 103.106, 1171.951 100.762 C 1170.292 98.418, 1168.195 95.375, 1167.291 94 C 1164.781 90.181, 1156.717 82, 1155.462 82 C 1154.850 82, 1153.292 80.875, 1152 79.500 C 1150.708 78.125, 1148.987 77, 1148.176 77 C 1147.364 77, 1144.405 75.924, 1141.600 74.609 C 1127.630 68.058, 1123.638 67.533, 1085.297 67.206 C 1051.053 66.913, 1050.040 66.960, 1048.066 68.934 M 1271.571 68.571 C 1270.707 69.436, 1269.994 71.573, 1269.986 73.321 C 1269.558 168.017, 1270.225 272.642, 1271.264 273.618 C 1273.136 275.376, 1298.540 276.259, 1299.906 274.614 C 1301.596 272.577, 1301.479 68.921, 1299.787 67.847 C 1297.236 66.228, 1273.300 66.843, 1271.571 68.571 M 850 96.216 C 843.241 96.845, 839.718 97.663, 837.790 99.050 C 836.300 100.123, 834.299 101, 833.344 101 C 832.389 101, 829.896 102.125, 827.804 103.500 C 825.712 104.875, 822.256 107.147, 820.125 108.549 C 810.248 115.048, 797.845 130.524, 793.718 141.500 C 782.025 172.602, 788.740 205.067, 811.315 226.563 C 819.824 234.664, 826.216 239.149, 832.163 241.187 C 833.998 241.816, 836.432 242.930, 837.571 243.663 C 839.969 245.205, 857.204 247.985, 864.422 247.994 C 890.719 248.026, 917.954 230.746, 929.033 207 C 929.674 205.625, 931.279 202.205, 932.600 199.400 C 933.920 196.595, 935.009 192.995, 935.020 191.400 C 935.031 189.805, 935.653 184.728, 936.403 180.118 C 937.541 173.118, 937.548 170.180, 936.448 162.302 C 934.815 150.613, 934.015 146.807, 932.898 145.414 C 932.419 144.816, 931.355 142.422, 930.533 140.094 C 928.715 134.940, 919.660 121.906, 913.798 116.004 C 903.635 105.772, 886.800 97.231, 875.268 96.455 C 870.995 96.167, 865.700 95.797, 863.500 95.632 C 861.300 95.467, 855.225 95.730, 850 96.216 M 1473.363 96.106 C 1464.566 96.761, 1454.442 99.992, 1450 103.562 C 1449.175 104.225, 1446.700 105.702, 1444.500 106.844 C 1436.102 111.204, 1417.030 132.844, 1417.007 138.039 C 1417.003 138.885, 1416.068 141.360, 1414.930 143.539 C 1408.856 155.160, 1408.676 187.037, 1414.614 199.514 C 1415.926 202.272, 1417 205.255, 1417 206.142 C 1417 207.029, 1417.708 208.343, 1418.573 209.061 C 1419.438 209.779, 1421.078 212.196, 1422.217 214.433 C 1426.468 222.782, 1445.034 238.727, 1452.733 240.641 C 1454.255 241.020, 1456.670 242.190, 1458.101 243.242 C 1466.090 249.120, 1501.588 248.881, 1511.423 242.884 C 1513.115 241.852, 1515.200 241.006, 1516.056 241.004 C 1516.911 241.002, 1520.286 239.184, 1523.556 236.964 C 1526.825 234.744, 1530.625 232.206, 1532 231.324 C 1540.220 226.052, 1553.677 204.835, 1555.991 193.500 C 1557.870 184.292, 1559 175.962, 1559 171.311 C 1559 163.883, 1556.030 148.049, 1553.887 144.050 C 1552.849 142.114, 1552 140.002, 1552 139.357 C 1552 138.712, 1549.189 134.031, 1545.753 128.954 C 1539.002 118.980, 1528.611 108.620, 1523 106.268 C 1521.075 105.461, 1518.783 104.165, 1517.908 103.388 C 1517.032 102.611, 1512.757 100.689, 1508.408 99.117 C 1499.468 95.885, 1488.723 94.962, 1473.363 96.106 M 1080.035 98.934 C 1079.380 100.158, 1079 113.229, 1079 134.500 C 1079 155.771, 1079.380 168.842, 1080.035 170.066 C 1081.619 173.025, 1115.299 172.955, 1121.859 169.978 C 1124.257 168.890, 1126.629 168, 1127.131 168 C 1128.728 168, 1136.397 162.601, 1138.804 159.781 C 1145.799 151.589, 1148.896 139.780, 1147.094 128.171 C 1144.980 114.546, 1137.442 105, 1124.644 99.745 C 1118.186 97.092, 1117.339 97, 1099.515 97 C 1082.303 97, 1081.001 97.129, 1080.035 98.934"/></g></svg>
